# xmcd
# Copyright (C) 1995-1998 Ti Kan
#
# Track frame offsets:
#       150
#       13538
#       28854
#
# Disc length: 635 seconds
#
# Revision: 0
# Processed by: cddbd v1.4PL0 Copyright (c) Steve Scherf et al.
# Submitted via: CD-Transfer v1.0
#
DISCID=1a027903
DTITLE=Deteil - I Wett Met Der
DYEAR=2003
DGENRE=
TTITLE0=I Wett Met Der
TTITLE1=Weder Fesch No Vogu
TTITLE2=Samet
EXTD=
EXTT0=
EXTT1=
EXTT2=
PLAYORDER=
